<svg width="16" height="14" fill="none" xmlns="http://www.w3.org/2000/svg"><path fill-rule="evenodd" clip-rule="evenodd" d="M14.361 6.559H1.64l.455 4.096h11.812l.455-4.096zM1.64 4.92c-.977 0-1.737.85-1.629 1.82l.455 4.096c.093.83.794 1.457 1.629 1.457h11.812c.835 0 1.536-.628 1.628-1.457l.455-4.096a1.638 1.638 0 0 0-1.628-1.82H1.64z" fill="#A3A3A5"/><path d="M3.085 12.293h1.638v1.638H3.085v-1.638zM11.277 12.293h1.638v1.638h-1.638v-1.638z" fill="#A3A3A5"/><path fill-rule="evenodd" clip-rule="evenodd" d="M1.707 2.866C1.258.173 4.883-1.13 6.251 1.233l-1.418.821c-.454-.785-1.659-.352-1.51.543l.57 3.417-1.616.27-.57-3.418z" fill="#A3A3A5"/></svg>