<svg width="20" height="20" fill="none" xmlns="http://www.w3.org/2000/svg"><path d="M13.125 2.5h-6.25A4.38 4.38 0 0 0 2.5 6.875v6.25A4.38 4.38 0 0 0 6.875 17.5h6.25a4.38 4.38 0 0 0 4.375-4.375v-6.25A4.38 4.38 0 0 0 13.125 2.5zm-3.75 11.25a.625.625 0 0 0-.625-.625H7.5v-1.25h1.25c.345 0 .625-.28.625-.625v-2.5c0-1.034.84-1.875 1.875-1.875h2.5v1.25h-1.875c-.69 0-1.25.56-1.25 1.25v1.875c0 .345.28.625.625.625h2.395l-.364 1.25H11.25a.625.625 0 0 0-.625.625v2.5h-1.25v-2.5zm6.875-.625a3.129 3.129 0 0 1-3.125 3.125h-1.25v-1.875h1.875a.624.624 0 0 0 .6-.45l.6-2.062a.938.938 0 0 0-.887-1.238h-2.188v-1.25h2.5c.345 0 .625-.28.625-.625v-2.5a.625.625 0 0 0-.625-.625H11.25A3.129 3.129 0 0 0 8.125 8.75v1.875h-1.25a.625.625 0 0 0-.625.625v2.5c0 .345.28.625.625.625h1.25v1.875h-1.25a3.129 3.129 0 0 1-3.125-3.125v-6.25A3.129 3.129 0 0 1 6.875 3.75h6.25a3.129 3.129 0 0 1 3.125 3.125v6.25z" fill="#515151"/></svg>