<svg width="26" height="26" fill="none" xmlns="http://www.w3.org/2000/svg"><rect width="26" height="26" rx="3" fill="#0BACEE"/><path d="M18.664 10.492c.008.11.008.219.008.328 0 3.336-2.68 7.18-7.58 7.18A7.838 7.838 0 0 1 7 16.867c.214.024.42.031.643.031a5.528 5.528 0 0 0 3.308-1.078c-1.171-.023-2.153-.75-2.491-1.75a2.964 2.964 0 0 0 1.204-.047c-1.22-.234-2.136-1.25-2.136-2.476v-.031c.355.187.767.304 1.204.32-.717-.453-1.188-1.227-1.188-2.102 0-.468.132-.898.363-1.273 1.312 1.531 3.283 2.531 5.494 2.64a2.707 2.707 0 0 1-.066-.578c0-1.39 1.188-2.523 2.664-2.523.768 0 1.46.305 1.947.797.602-.11 1.18-.32 1.691-.61a2.547 2.547 0 0 1-1.171 1.391A5.578 5.578 0 0 0 20 9.188c-.363.5-.817.945-1.336 1.304z" fill="#fff"/></svg>