<svg width="20" height="20" fill="none" xmlns="http://www.w3.org/2000/svg"><path d="M13.125 2.5h-6.25A4.38 4.38 0 0 0 2.5 6.875v6.25A4.38 4.38 0 0 0 6.875 17.5h6.25a4.38 4.38 0 0 0 4.375-4.375v-6.25A4.38 4.38 0 0 0 13.125 2.5zm3.125 10.625a3.129 3.129 0 0 1-3.125 3.125h-6.25a3.129 3.129 0 0 1-3.125-3.125v-6.25A3.129 3.129 0 0 1 6.875 3.75h6.25a3.129 3.129 0 0 1 3.125 3.125v6.25z" fill="#515151"/><path d="M10 6.563A3.442 3.442 0 0 0 6.562 10 3.442 3.442 0 0 0 10 13.438 3.442 3.442 0 0 0 13.438 10 3.442 3.442 0 0 0 10 6.562zm0 5.625A2.19 2.19 0 0 1 7.812 10 2.19 2.19 0 0 1 10 7.812 2.19 2.19 0 0 1 12.188 10 2.19 2.19 0 0 1 10 12.188zM14.063 5a.939.939 0 0 0 0 1.875.939.939 0 0 0 0-1.875z" fill="#515151"/></svg>