<svg width="20" height="14" fill="none" xmlns="http://www.w3.org/2000/svg"><path fill-rule="evenodd" clip-rule="evenodd" d="M9.167 2.417h6.666a3.332 3.332 0 0 1 3.334 3.333v7.5H17.5v-2.5h-15v2.5H.833V.75H2.5v8.333h6.667V2.417zM8.333 5.75c0 1.383-1.116 2.5-2.5 2.5a2.497 2.497 0 0 1-2.5-2.5c0-1.383 1.117-2.5 2.5-2.5 1.384 0 2.5 1.117 2.5 2.5zm2.5 3.333H17.5V5.75c0-.917-.75-1.667-1.667-1.667h-5v5zM6.667 5.75a.836.836 0 0 0-.834-.833A.836.836 0 0 0 5 5.75c0 .458.375.833.833.833a.836.836 0 0 0 .834-.833z" fill="#A4A3A8"/></svg>