<svg width="26" height="26" fill="none" xmlns="http://www.w3.org/2000/svg"><rect width="26" height="26" rx="3" fill="#5CC059"/><path d="M17.203 8.744A5.902 5.902 0 0 0 12.997 7a5.954 5.954 0 0 0-5.153 8.92L7 19l3.153-.828a5.928 5.928 0 0 0 2.842.723h.002c3.276 0 6.003-2.667 6.003-5.946 0-1.588-.675-3.08-1.797-4.205zm-4.206 9.15c-.889 0-1.76-.239-2.518-.689l-.179-.107-1.87.49.499-1.824-.118-.187a4.926 4.926 0 0 1-.756-2.63A4.95 4.95 0 0 1 13 8.003c1.32 0 2.56.515 3.493 1.45.932.934 1.505 2.175 1.503 3.495 0 2.727-2.275 4.945-4.999 4.945zm2.711-3.702a21.46 21.46 0 0 0-1.015-.482c-.137-.051-.236-.075-.335.075-.1.15-.383.482-.471.584-.086.099-.175.112-.322.037-.873-.436-1.446-.78-2.022-1.768-.153-.262.152-.243.437-.811.048-.1.024-.185-.014-.26-.037-.075-.335-.806-.458-1.104-.12-.289-.244-.249-.335-.254-.085-.005-.185-.005-.284-.005a.55.55 0 0 0-.396.184c-.137.15-.52.51-.52 1.24 0 .732.533 1.439.606 1.538.075.1 1.047 1.6 2.539 2.245.943.407 1.312.442 1.784.372.286-.043.878-.359 1.002-.707.123-.348.123-.646.085-.707-.035-.067-.134-.105-.281-.177z" fill="#fff"/></svg>